<svg width="59" height="67" viewBox="0 0 59 67" fill="none" xmlns="http://www.w3.org/2000/svg">
<g id="&#240;&#159;&#166;&#134; icon &#34;dollar&#34;">
<path id="Vector" d="M23.6022 0V8.36454H14.7954C6.81057 8.36454 0.117424 13.1323 0.117424 18.8202V23.0025C0.117424 28.6904 5.28407 33.3745 12.9166 34.7965L42.9771 40.3171C44.621 40.6517 46.9695 42.7428 46.9695 43.9975V48.1798C46.9695 49.3508 45.6778 50.2709 44.0339 50.2709H14.678C13.2689 50.2709 12.2121 49.9363 11.7424 49.769V41.9064H0V50.2709C0 53.1149 2.34847 55.5406 5.16664 56.7953C7.86739 58.1336 11.2727 58.6355 14.678 58.6355H23.4847V67H35.2271V58.6355H44.0339C52.1361 58.6355 58.7118 53.9513 58.7118 48.1798V43.9975C58.7118 38.3096 53.5452 33.6255 45.9127 32.2035L15.8522 26.6829C14.2083 26.3483 11.8598 24.2572 11.8598 23.0025V18.8202C11.8598 17.6492 13.1515 16.7291 14.7954 16.7291H44.1513C45.443 16.7291 46.6172 17.0637 47.0869 17.231V25.0936H58.8293V16.7291C58.8293 13.8851 56.4808 11.4594 53.6626 10.2047C50.9619 8.86642 47.5566 8.36454 44.1513 8.36454H35.3445V0L23.6022 0Z" fill="#F37135"/>
</g>
</svg>
