<svg width="59" height="67" viewBox="0 0 59 67" fill="none" xmlns="http://www.w3.org/2000/svg">
<g id="&#240;&#159;&#166;&#134; icon &#34;timer&#34;">
<path id="Vector" d="M16.6222 0V8.375H24.9333V8.62625C10.8044 10.6362 0 22.9475 0 37.6875C0 53.8512 13.0484 67 29.0889 67C45.1293 67 58.1778 53.8512 58.1778 37.6875C58.1778 33.9188 57.3466 30.4013 56.1 27.2188L48.5369 30.4013C49.4511 32.83 49.8666 35.175 49.8666 37.7713C49.8666 49.4125 40.6413 58.7088 29.0889 58.7088C17.5364 58.7088 8.31111 49.4125 8.31111 37.7713C8.31111 26.13 17.5364 16.8337 29.0889 16.8337C31.5822 16.8337 33.9924 17.2525 36.4027 18.1737L39.2284 10.3013C37.3169 9.63125 35.3222 9.29625 33.2444 8.96125V8.45875H41.5555V0.08375H16.6222V0ZM58.1778 9.715C58.1778 9.715 27.8422 33.2487 26.2631 34.84C24.684 36.515 24.684 38.9437 26.2631 40.6187C27.8422 42.2938 30.3355 42.2938 31.9978 40.6187C33.66 38.9437 58.2609 9.715 58.2609 9.715H58.1778Z" fill="#F37135"/>
</g>
</svg>
